<?xml version="1.0" standalone="no"?>
<!DOCTYPE svg PUBLIC "-//W3C//DTD SVG 20010904//EN"
 "http://www.w3.org/TR/2001/REC-SVG-20010904/DTD/svg10.dtd">
<svg version="1.0" xmlns="http://www.w3.org/2000/svg"
 width="300.000000pt" height="226.000000pt" viewBox="0 0 300.000000 226.000000"
 preserveAspectRatio="xMidYMid meet">
<metadata>
Created by potrace 1.10, written by Peter Selinger 2001-2011
</metadata>
<g transform="translate(0.000000,226.000000) scale(0.100000,-0.100000)"
fill="#000000" stroke="none">
<path d="M2955 2243 c-65 -34 -581 -337 -596 -349 -8 -8 -26 -55 -39 -106 -26
-105 -43 -143 -107 -239 l-45 -68 11 -125 c6 -69 14 -204 17 -299 l7 -174 -64
-21 c-78 -26 -186 -52 -217 -52 -17 0 -22 4 -18 18 2 9 7 27 11 40 10 34 -11
26 -36 -14 -24 -39 -92 -76 -175 -94 -77 -17 -313 -50 -361 -50 l-45 0 22 33
c12 17 42 75 68 127 41 83 47 104 50 170 4 90 -16 131 -72 150 -56 18 -110 -2
-172 -65 -64 -66 -162 -211 -220 -327 l-44 -87 -67 -20 c-204 -60 -421 -85
-534 -62 -127 27 -198 109 -185 215 4 28 23 89 42 136 51 120 51 120 22 120
-19 0 -31 -13 -60 -62 -110 -191 -155 -315 -145 -400 25 -204 200 -300 497
-270 135 13 274 48 397 97 l86 35 32 -20 c28 -17 50 -20 151 -20 128 0 342 27
469 60 60 15 81 17 86 8 6 -9 11 -9 21 -1 7 6 56 23 108 38 299 84 363 123
433 261 68 135 79 272 53 649 -7 99 -12 181 -12 181 1 1 134 79 296 173 162
94 299 176 305 182 14 14 75 233 67 241 -4 3 -20 -1 -37 -9z m-1744 -1305 c30
-32 51 -87 44 -115 -6 -26 -60 -55 -123 -67 -37 -6 -72 19 -72 53 0 28 100
147 127 151 1 0 12 -10 24 -22z"/>
<path d="M1126 1615 c-42 -53 -74 -100 -71 -105 14 -23 118 -115 130 -115 7 0
47 43 89 95 l75 94 -67 63 c-37 34 -70 62 -73 63 -4 0 -41 -43 -83 -95z"/>
<path d="M1690 269 c-85 -16 -166 -33 -179 -37 -18 -6 -39 -38 -81 -120 -32
-62 -55 -112 -51 -112 3 0 87 15 186 33 l180 33 57 110 c32 60 57 112 58 117
0 9 16 11 -170 -24z"/>
</g>
</svg>
