<?xml version="1.0" standalone="no"?>
<!DOCTYPE svg PUBLIC "-//W3C//DTD SVG 20010904//EN"
 "http://www.w3.org/TR/2001/REC-SVG-20010904/DTD/svg10.dtd">
<svg version="1.0" xmlns="http://www.w3.org/2000/svg"
 width="240.000000pt" height="227.000000pt" viewBox="0 0 240.000000 227.000000"
 preserveAspectRatio="xMidYMid meet">
<metadata>
Created by potrace 1.10, written by Peter Selinger 2001-2011
</metadata>
<g transform="translate(0.000000,227.000000) scale(0.100000,-0.100000)"
fill="#000000" stroke="none">
<path d="M1885 2219 c-58 -53 -127 -159 -183 -279 -24 -52 -69 -147 -99 -210
-73 -154 -91 -199 -99 -257 -13 -100 34 -182 127 -222 50 -22 196 -43 241 -36
13 2 47 5 77 7 l54 3 18 -50 c29 -83 27 -93 -50 -166 -61 -59 -106 -93 -201
-151 -52 -32 -374 -161 -860 -345 -354 -133 -763 -323 -867 -400 -107 -79 36
-104 597 -106 312 -2 343 0 447 21 213 43 336 92 498 200 256 171 480 428 625
717 163 326 215 630 150 880 -61 238 -237 435 -388 435 -36 0 -49 -6 -87 -41z"/>
</g>
</svg>
