<?xml version="1.0" standalone="no"?>
<!DOCTYPE svg PUBLIC "-//W3C//DTD SVG 20010904//EN"
 "http://www.w3.org/TR/2001/REC-SVG-20010904/DTD/svg10.dtd">
<svg version="1.0" xmlns="http://www.w3.org/2000/svg"
 width="300.000000pt" height="127.000000pt" viewBox="0 0 300.000000 127.000000"
 preserveAspectRatio="xMidYMid meet">
<metadata>
Created by potrace 1.10, written by Peter Selinger 2001-2011
</metadata>
<g transform="translate(0.000000,127.000000) scale(0.100000,-0.100000)"
fill="#000000" stroke="none">
<path d="M325 1208 c-252 -429 -351 -712 -316 -906 15 -86 58 -177 102 -219
99 -94 268 -107 449 -36 183 73 325 215 426 427 42 90 47 96 75 96 41 0 243
36 302 55 65 20 159 71 190 103 68 71 147 250 167 379 14 88 0 101 -33 29 -34
-74 -100 -138 -168 -164 -54 -20 -204 -45 -346 -57 l-72 -6 -5 33 c-19 138
-29 184 -52 247 -15 40 -31 70 -36 69 -5 -2 -39 -71 -75 -153 l-65 -150 27
-104 c14 -56 29 -140 32 -185 l6 -82 -64 -46 c-83 -59 -206 -120 -299 -149
-61 -19 -97 -24 -191 -23 -106 0 -121 3 -172 28 -88 43 -117 105 -92 200 17
65 136 336 148 336 4 0 41 -23 82 -50 42 -28 81 -53 89 -56 12 -5 68 87 173
278 4 7 -125 99 -199 142 l-46 27 -37 -63z"/>
<path d="M2713 1143 c-47 -50 -175 -314 -181 -375 -9 -91 46 -131 183 -132
l79 -1 10 -34 c9 -33 8 -36 -43 -83 -70 -64 -102 -79 -419 -202 -147 -57 -305
-120 -352 -140 -124 -55 -252 -126 -247 -139 6 -20 59 -27 252 -33 366 -13
516 36 711 230 146 147 234 303 270 478 39 191 -16 376 -131 444 -59 34 -91
31 -132 -13z"/>
<path d="M1480 401 c-107 -21 -213 -42 -235 -47 -39 -9 -41 -11 -113 -152 -41
-79 -71 -146 -68 -149 3 -3 96 12 208 32 112 21 219 41 238 44 34 6 38 12 112
156 43 83 78 151 78 153 0 4 -26 0 -220 -37z"/>
</g>
</svg>
